<?xml version="1.0" encoding="UTF-8" standalone="no"?>
<svg
   xmlns:dc="http://purl.org/dc/elements/1.1/"
   xmlns:cc="http://creativecommons.org/ns#"
   xmlns:rdf="http://www.w3.org/1999/02/22-rdf-syntax-ns#"
   xmlns:svg="http://www.w3.org/2000/svg"
   xmlns="http://www.w3.org/2000/svg"
   id="svg880"
   version="1.1"
   viewBox="0 0 6.0180563 8.2020805"
   height="30.999989"
   width="22.745409">
  <defs
     id="defs874" />
  <metadata
     id="metadata877">
    <rdf:RDF>
      <cc:Work
         rdf:about="">
        <dc:format>image/svg+xml</dc:format>
        <dc:type
           rdf:resource="http://purl.org/dc/dcmitype/StillImage" />
        <dc:title></dc:title>
      </cc:Work>
    </rdf:RDF>
  </metadata>
  <g
     transform="translate(-42.148538,-135.96474)"
     id="layer1">
    <path
       id="path976"
       d="m 43.667108,135.96479 c -0.837854,0 -1.51857,0.68071 -1.51857,1.51857 v 5.16437 c 0,0.83788 0.680716,1.51909 1.51857,1.51909 h 2.980916 c 0.837844,0 1.51857,-0.68121 1.51857,-1.51909 v -4.3045 -0.1795 c 5.9e-5,-0.046 -0.01814,-0.0901 -0.05055,-0.12277 l -2.02562,-2.02562 c -0.03263,-0.0324 -0.07678,-0.0507 -0.122765,-0.0506 h -0.112967 z m 0,0.34715 h 2.031294 v 1.80124 c 0,0.22125 0.182642,0.40388 0.403885,0.40388 h 1.717161 v 4.13067 c 0,0.65118 -0.520238,1.16988 -1.171424,1.16988 h -2.980916 c -0.651196,0 -1.169876,-0.5187 -1.169876,-1.16988 v -5.16437 c 0,-0.65116 0.51868,-1.17142 1.169876,-1.17142 z m 2.378441,0.1501 1.707874,1.70787 h -1.651136 c -0.03474,0 -0.05673,-0.0221 -0.05673,-0.0567 z m -1.123454,2.201 v 5.3e-4 c -0.324975,0 -0.588549,0.26307 -0.588549,0.58803 0,0.005 0.0025,0.50627 0.242951,1.09456 -0.123579,0.34008 -0.273331,0.68168 -0.446184,1.01772 -0.377498,0.17762 -0.689245,0.3903 -0.927442,0.63342 -0.109507,0.11312 -0.164546,0.25901 -0.164546,0.43432 0,0.32409 0.263422,0.58803 0.587518,0.58803 0.189716,0 0.36855,-0.0917 0.478164,-0.24553 0.128618,-0.18059 0.323044,-0.47305 0.535419,-0.86038 0.277548,-0.11161 0.595201,-0.20543 0.946527,-0.2806 0.238024,0.16824 0.507841,0.30341 0.803131,0.40285 0.07952,0.0274 0.164944,0.0412 0.253266,0.0412 0.355893,0 0.634457,-0.28425 0.634457,-0.64735 0,-0.35711 -0.290229,-0.64786 -0.647352,-0.64786 h -0.06499 c -0.0479,9.9e-4 -0.360244,0.0202 -0.79694,0.0944 -0.172641,-0.15962 -0.318382,-0.34585 -0.43432,-0.56018 0.01541,-0.0472 0.03008,-0.0945 0.04488,-0.14288 0.02519,-0.10126 0.131534,-0.5541 0.131534,-0.92177 5.28e-4,-0.32471 -0.262542,-0.58855 -0.587518,-0.58855 z m 0,0.47094 c 0.06487,0 0.117607,0.0532 0.117607,0.11812 0,0.26719 -0.07235,0.61165 -0.101101,0.73918 -0.130991,-0.39704 -0.134628,-0.70981 -0.134628,-0.73969 0,-0.0649 0.05313,-0.11761 0.118122,-0.11761 z m 0.05364,1.48969 c 0.112231,0.19183 0.255756,0.38412 0.438446,0.56172 -0.246633,0.0568 -0.51312,0.12852 -0.77837,0.22335 0.116131,-0.23679 0.231717,-0.49978 0.339924,-0.78507 z m 1.59388,0.63084 h 0.0588 c 0.0973,0 0.17641,0.0787 0.17641,0.1893 0,0.0901 -0.07316,0.16403 -0.163515,0.16403 -0.03564,0 -0.07116,-0.005 -0.102648,-0.0165 -0.21659,-0.0727 -0.405876,-0.16417 -0.571527,-0.2672 0.355015,-0.0558 0.597207,-0.0697 0.602477,-0.0697 z m -2.471288,0.65613 c -0.165692,0.28548 -0.306169,0.48905 -0.378094,0.58906 -0.0575,0.0823 -0.210971,0.0487 -0.210971,-0.0933 0,-0.0309 0.01058,-0.0598 0.02992,-0.0795 0.158289,-0.16178 0.350179,-0.29917 0.559147,-0.41625 z"
       style="color:#000000;font-style:normal;font-variant:normal;font-weight:normal;font-stretch:normal;font-size:medium;line-height:normal;font-family:sans-serif;font-variant-ligatures:normal;font-variant-position:normal;font-variant-caps:normal;font-variant-numeric:normal;font-variant-alternates:normal;font-feature-settings:normal;text-indent:0;text-align:start;text-decoration:none;text-decoration-line:none;text-decoration-style:solid;text-decoration-color:#000000;letter-spacing:normal;word-spacing:normal;text-transform:none;writing-mode:lr-tb;direction:ltr;text-orientation:mixed;dominant-baseline:auto;baseline-shift:baseline;text-anchor:start;white-space:normal;shape-padding:0;clip-rule:nonzero;display:inline;overflow:visible;visibility:visible;opacity:1;isolation:auto;mix-blend-mode:normal;color-interpolation:sRGB;color-interpolation-filters:linearRGB;solid-color:#000000;solid-opacity:1;vector-effect:none;fill:#000000;fill-opacity:1;fill-rule:nonzero;stroke:none;stroke-width:0.34782761;stroke-linecap:round;stroke-linejoin:round;stroke-miterlimit:4;stroke-dasharray:none;stroke-dashoffset:0;stroke-opacity:1;paint-order:markers fill stroke;color-rendering:auto;image-rendering:auto;shape-rendering:auto;text-rendering:auto;enable-background:accumulate" />
  </g>
</svg>
