<svg xmlns="http://www.w3.org/2000/svg">
<symbol id="house-solid" viewBox="0 0 576 512"><g><path d="M575.8 255.5C575.8 273.5 560.8 287.6 543.8 287.6H511.8L512.5 447.7C512.5 450.5 512.3 453.1 512 455.8V472C512 494.1 494.1 512 472 512H456C454.9 512 453.8 511.1 452.7 511.9C451.3 511.1 449.9 512 448.5 512H392C369.9 512 352 494.1 352 472V384C352 366.3 337.7 352 320 352H256C238.3 352 224 366.3 224 384V472C224 494.1 206.1 512 184 512H128.1C126.6 512 125.1 511.9 123.6 511.8C122.4 511.9 121.2 512 120 512H104C81.91 512 64 494.1 64 472V360C64 359.1 64.03 358.1 64.09 357.2V287.6H32.05C14.02 287.6 0 273.5 0 255.5C0 246.5 3.004 238.5 10.01 231.5L266.4 8.016C273.4 1.002 281.4 0 288.4 0C295.4 0 303.4 2.004 309.5 7.014L564.8 231.5C572.8 238.5 576.9 246.5 575.8 255.5L575.8 255.5z"/></g></symbol>
<symbol id="pdf" viewBox="0 0 6.0180563 8.2020805"><g transform="translate(-42.148538,-135.96474)"><path d="m 43.667108,135.96479 c -0.837854,0 -1.51857,0.68071 -1.51857,1.51857 v 5.16437 c 0,0.83788 0.680716,1.51909 1.51857,1.51909 h 2.980916 c 0.837844,0 1.51857,-0.68121 1.51857,-1.51909 v -4.3045 -0.1795 c 5.9e-5,-0.046 -0.01814,-0.0901 -0.05055,-0.12277 l -2.02562,-2.02562 c -0.03263,-0.0324 -0.07678,-0.0507 -0.122765,-0.0506 h -0.112967 z m 0,0.34715 h 2.031294 v 1.80124 c 0,0.22125 0.182642,0.40388 0.403885,0.40388 h 1.717161 v 4.13067 c 0,0.65118 -0.520238,1.16988 -1.171424,1.16988 h -2.980916 c -0.651196,0 -1.169876,-0.5187 -1.169876,-1.16988 v -5.16437 c 0,-0.65116 0.51868,-1.17142 1.169876,-1.17142 z m 2.378441,0.1501 1.707874,1.70787 h -1.651136 c -0.03474,0 -0.05673,-0.0221 -0.05673,-0.0567 z m -1.123454,2.201 v 5.3e-4 c -0.324975,0 -0.588549,0.26307 -0.588549,0.58803 0,0.005 0.0025,0.50627 0.242951,1.09456 -0.123579,0.34008 -0.273331,0.68168 -0.446184,1.01772 -0.377498,0.17762 -0.689245,0.3903 -0.927442,0.63342 -0.109507,0.11312 -0.164546,0.25901 -0.164546,0.43432 0,0.32409 0.263422,0.58803 0.587518,0.58803 0.189716,0 0.36855,-0.0917 0.478164,-0.24553 0.128618,-0.18059 0.323044,-0.47305 0.535419,-0.86038 0.277548,-0.11161 0.595201,-0.20543 0.946527,-0.2806 0.238024,0.16824 0.507841,0.30341 0.803131,0.40285 0.07952,0.0274 0.164944,0.0412 0.253266,0.0412 0.355893,0 0.634457,-0.28425 0.634457,-0.64735 0,-0.35711 -0.290229,-0.64786 -0.647352,-0.64786 h -0.06499 c -0.0479,9.9e-4 -0.360244,0.0202 -0.79694,0.0944 -0.172641,-0.15962 -0.318382,-0.34585 -0.43432,-0.56018 0.01541,-0.0472 0.03008,-0.0945 0.04488,-0.14288 0.02519,-0.10126 0.131534,-0.5541 0.131534,-0.92177 5.28e-4,-0.32471 -0.262542,-0.58855 -0.587518,-0.58855 z m 0,0.47094 c 0.06487,0 0.117607,0.0532 0.117607,0.11812 0,0.26719 -0.07235,0.61165 -0.101101,0.73918 -0.130991,-0.39704 -0.134628,-0.70981 -0.134628,-0.73969 0,-0.0649 0.05313,-0.11761 0.118122,-0.11761 z m 0.05364,1.48969 c 0.112231,0.19183 0.255756,0.38412 0.438446,0.56172 -0.246633,0.0568 -0.51312,0.12852 -0.77837,0.22335 0.116131,-0.23679 0.231717,-0.49978 0.339924,-0.78507 z m 1.59388,0.63084 h 0.0588 c 0.0973,0 0.17641,0.0787 0.17641,0.1893 0,0.0901 -0.07316,0.16403 -0.163515,0.16403 -0.03564,0 -0.07116,-0.005 -0.102648,-0.0165 -0.21659,-0.0727 -0.405876,-0.16417 -0.571527,-0.2672 0.355015,-0.0558 0.597207,-0.0697 0.602477,-0.0697 z m -2.471288,0.65613 c -0.165692,0.28548 -0.306169,0.48905 -0.378094,0.58906 -0.0575,0.0823 -0.210971,0.0487 -0.210971,-0.0933 0,-0.0309 0.01058,-0.0598 0.02992,-0.0795 0.158289,-0.16178 0.350179,-0.29917 0.559147,-0.41625 z"/></g></symbol>
<symbol id="react" viewBox="0 0 64 64"><g><path d="M51.6,22.6c-0.7-0.1-1.3-0.4-2-0.6c0.1-0.4,0.1-0.8,0.3-1.4c1.4-7.2,0.4-12.9-2.8-14.9c-3.2-1.8-8.4,0.1-13.6,4.6  c-0.4,0.4-1.1,0.8-1.5,1.4c-0.3-0.3-0.7-0.6-1-1c-5.5-4.9-10.9-6.9-14.3-5c-3.2,1.8-4.2,7.3-2.8,14c0.1,0.7,0.3,1.4,0.4,2  c-0.7,0.1-1.5,0.4-2.2,0.7C5.6,24.7,1,28.4,1,31.9c0,3.8,4.9,7.6,11.6,9.8c0.6,0.1,1.1,0.4,1.7,0.4c-0.1,0.7-0.4,1.4-0.4,2.2  c-1.3,6.6-0.3,11.9,2.9,13.7c3.2,2,8.8,0,14-4.8c0.4-0.4,0.8-0.7,1.3-1.1c0.4,0.4,1.1,1,1.7,1.4c5,4.5,10.2,6.3,13.5,4.5  c3.2-2,4.3-7.6,2.9-14.6c-0.1-0.4-0.1-1.1-0.4-1.7c0.4-0.1,0.7-0.1,1.1-0.4c7-2.1,12.1-5.9,12.1-9.7C62.9,28.5,58.1,24.9,51.6,22.6  L51.6,22.6z M35.2,12.4c4.5-3.9,8.7-5.3,10.7-4.3c2,1.1,2.8,5.9,1.5,12.2c-0.1,0.4-0.1,0.7-0.3,1.3c-2.7-0.6-5.3-1.1-8.1-1.3  c-1.5-2.2-3.2-4.5-5-6.3C34.4,13.2,34.8,12.8,35.2,12.4z M21.3,38.3c0.6,1.1,1.3,2.1,2,3.1c-2-0.1-3.8-0.4-5.6-0.8  c0.4-1.7,1.1-3.5,2-5.3C20.1,36.2,20.8,37.4,21.3,38.3L21.3,38.3z M17.7,23.9c1.7-0.4,3.5-0.7,5.5-1c-0.7,1-1.3,2-1.8,3.1  s-1.1,2-1.7,3.2C18.8,27.3,18.3,25.6,17.7,23.9L17.7,23.9z M20.9,32.2c0.7-1.7,1.7-3.2,2.7-4.9c1-1.7,2-3.2,2.9-4.8  c1.8-0.1,3.6-0.1,5.5-0.1c1.8,0,3.8,0.1,5.5,0.1c1.1,1.5,2,3.1,2.9,4.6c1,1.5,1.8,3.2,2.7,4.9c-0.7,1.7-1.7,3.2-2.7,4.9  c-1,1.7-2,3.2-2.9,4.8c-1.8,0.1-3.6,0.1-5.6,0.1s-3.8-0.1-5.5-0.1c-1.1-1.5-2-3.1-2.9-4.8S21.8,33.9,20.9,32.2L20.9,32.2z   M42.7,38.3c0.6-1.1,1.1-2.1,1.7-3.2c0.7,1.7,1.4,3.5,2,5.3c-1.8,0.4-3.8,0.7-5.8,1C41.4,40.4,42.1,39.3,42.7,38.3L42.7,38.3z   M44.5,29.1c-0.6-1.1-1.1-2.1-1.7-3.2s-1.3-2-1.8-2.9c2,0.3,3.8,0.6,5.5,1C45.9,25.7,45.2,27.4,44.5,29.1z M32,15.6  c1.3,1.4,2.4,2.8,3.5,4.3c-2.4-0.1-4.8-0.1-7.2,0C29.6,18.3,30.9,16.9,32,15.6z M18,8.2c2-1.1,6.6,0.4,11.2,4.8  c0.3,0.3,0.6,0.6,1,0.8c-1.8,2-3.5,4.2-5.2,6.3c-2.7,0.3-5.5,0.7-8.1,1.3c-0.1-0.6-0.3-1.3-0.4-1.8C15.4,13.7,16.1,9.3,18,8.2  L18,8.2z M15.2,40c-0.4-0.1-1-0.3-1.5-0.4C11,38.9,8.2,37.5,6,35.8c-1.4-1-2.1-2.2-2.4-3.6c0-2.2,3.9-5,9.4-7  c0.7-0.3,1.4-0.4,2.1-0.7c0.8,2.7,1.8,5.2,2.9,7.7C17,34.7,15.9,37.2,15.2,40z M29.1,51.7c-2,1.8-4.3,3.2-6.9,4.2  c-1.4,0.7-2.9,0.7-4.2,0.1c-2-1.1-2.7-5.3-1.7-11.1c0.1-0.7,0.3-1.4,0.4-2c2.7,0.6,5.5,1,8.1,1.1c1.5,2.2,3.4,4.5,5.2,6.5  C29.9,51.1,29.5,51.4,29.1,51.7L29.1,51.7z M32.1,48.9c-1.3-1.4-2.4-2.8-3.6-4.3c1.1,0,2.2,0.1,3.5,0.1s2.5,0,3.6-0.1  C34.5,45.9,33.4,47.3,32.1,48.9z M47.9,52.4c-0.1,1.4-0.8,2.9-2,3.8c-2,1.1-6-0.3-10.4-4.2c-0.4-0.4-1-0.8-1.5-1.4  c1.8-2,3.5-4.2,5-6.5c2.8-0.1,5.5-0.7,8.1-1.3c0.1,0.4,0.1,1,0.3,1.4C48.1,47,48.1,49.8,47.9,52.4L47.9,52.4z M50.1,39.5  c-0.3,0.1-0.7,0.1-1.1,0.3c-0.8-2.7-2-5.2-3.1-7.7c1.1-2.4,2.1-5,2.9-7.6c0.7,0.1,1.3,0.4,1.8,0.6c5.6,2,9.5,4.8,9.5,7  C60.2,34.4,56.1,37.5,50.1,39.5z M32,37.6c3.1,0,5.5-2.5,5.5-5.5s-2.5-5.5-5.5-5.5c-2.9,0-5.5,2.5-5.5,5.5S28.9,37.6,32,37.6  L32,37.6z"/></g></symbol>
<symbol id="user-solid" viewBox="0 0 448 512"><g><path d="M224 256c70.7 0 128-57.31 128-128s-57.3-128-128-128C153.3 0 96 57.31 96 128S153.3 256 224 256zM274.7 304H173.3C77.61 304 0 381.6 0 477.3c0 19.14 15.52 34.67 34.66 34.67h378.7C432.5 512 448 496.5 448 477.3C448 381.6 370.4 304 274.7 304z"/></g></symbol>
</svg>